PathFileType	4	(X/Y/Z)	./resultDataOpenSim/trcMotMarkerGrf/sub06/qtm-01-03.trc
DataRate	CameraRate	NumFrames	NumMarkers	Units	OrigDataRate	OrigDataStartFrame	OrigNumFrames
250.000000	250.000000	7	24	m	250.000000	257	512
Frame#	Time	L.Toe.Tip			R.Toe.Tip			L.Ankle.Lat			R.Ankle.Lat			L.Ankle.Med			R.Ankle.Med			L.Heel			R.Heel			L.Knee.Lat			R.Knee.Lat			L.Knee.Med			R.Knee.Med			L.Thigh.Upper			R.Thigh.Upper			L.ASIS			R.ASIS			V.Sacral			L.Acromium			R.Acromium			C7			L.Elbow			R.Elbow			L.Wrist.Lat			R.Wrist.Lat
		X1	Y1	Z1	X2	Y2	Z2	X3	Y3	Z3	X4	Y4	Z4	X5	Y5	Z5	X6	Y6	Z6	X7	Y7	Z7	X8	Y8	Z8	X9	Y9	Z9	X10	Y10	Z10	X11	Y11	Z11	X12	Y12	Z12	X13	Y13	Z13	X14	Y14	Z14	X15	Y15	Z15	X16	Y16	Z16	X17	Y17	Z17	X18	Y18	Z18	X19	Y19	Z19	X20	Y20	Z20	X21	Y21	Z21	X22	Y22	Z22	X23	Y23	Z23	X24	Y24	Z24

257	1.024	0.067492421	0.034437972	-0.02692677	0.65051083	0.14208448	0.15366474	-0.053854004	0.07268614	-0.052425593	0.5174308	0.10304439	0.17025337	-0.053942433	0.088083712	0.035375271	0.53016804	0.13316806	0.084088291	-0.13141803	0.052887682	-0.0074932743	0.48567639	0.057267643	0.10661276	0.086842119	0.41774561	-0.0769155	0.37799211	0.46453354	0.16902303	0.068486326	0.42371242	0.042794757	0.36342471	0.43460886	0.03681294	0.1494474	0.80102639	-0.1488525	0.19251931	0.78433326	0.19560786	0.23255546	0.84714394	-0.11419181	0.2658813	0.84964481	0.1315965	0.070289724	0.90541229	0.042481197	0.18337553	1.3306856	-0.15787023	0.16591521	1.3093802	0.20438297	0.098381847	1.3571373	0.019526173	0.22738204	1.0118892	-0.23927264	0.02066016	1.0287878	0.25219271	0.45749407	0.92733832	-0.18157007	0.083778797	0.80049522	0.30016118
258	1.028	0.06753348	0.034418083	-0.026926839	0.66077772	0.14466379	0.15336804	-0.05341049	0.073016795	-0.052119847	0.52761357	0.10415347	0.16983631	-0.053257299	0.088514757	0.035618924	0.54073217	0.13418071	0.083531462	-0.13120562	0.053841492	-0.0070564373	0.49718437	0.057434762	0.10596241	0.090125338	0.41701086	-0.076763364	0.38506093	0.46376359	0.16864856	0.072724999	0.42280123	0.042972979	0.36985784	0.43369565	0.036388029	0.15419419	0.79994309	-0.14829437	0.20056884	0.78306464	0.19635476	0.2379916	0.84583059	-0.11426348	0.2725978	0.84829384	0.13149015	0.076137727	0.90446702	0.043466714	0.18933185	1.3290573	-0.15772058	0.17161164	1.3077959	0.2047592	0.10429523	1.355894	0.019776141	0.23512651	1.0103101	-0.2386806	0.02605373	1.0274658	0.25225245	0.46558503	0.92777301	-0.18017093	0.087631858	0.79905747	0.3008624
259	1.032	0.067566052	0.034404784	-0.026926096	0.67054407	0.14677571	0.15306613	-0.052867199	0.073416371	-0.051931592	0.53726746	0.10498421	0.16921792	-0.052530657	0.089033226	0.035858839	0.55085341	0.13507956	0.082846939	-0.13097582	0.054890133	-0.00665514	0.50812352	0.057553167	0.10503826	0.093472266	0.41631278	-0.076608987	0.39228127	0.46307668	0.16832703	0.077010261	0.42197641	0.043172766	0.37629479	0.43284874	0.036022593	0.15899831	0.7988547	-0.1477378	0.20836812	0.78179024	0.19693875	0.24345804	0.8445313	-0.11433477	0.27935351	0.8469629	0.13135384	0.082080486	0.90374951	0.04424801	0.19529711	1.3274468	-0.15756535	0.17733625	1.3062294	0.20516518	0.11023412	1.3546797	0.020037334	0.24285846	1.0087399	-0.23796355	0.031525274	1.0261274	0.25230758	0.4735961	0.92812978	-0.17878997	0.091563249	0.79760879	0.30156093
260	1.036	0.067596301	0.034391293	-0.026910825	0.67982802	0.14842704	0.15271861	-0.052330226	0.073934003	-0.051790668	0.54654958	0.10545283	0.1683972	-0.051757263	0.089606175	0.036088768	0.56048624	0.13579004	0.082076821	-0.13071812	0.0560485	-0.0063241184	0.51847858	0.057595796	0.10390566	0.096904444	0.41564456	-0.076462585	0.39960988	0.46243653	0.16808747	0.081332594	0.4212228	0.043377814	0.38276157	0.43203875	0.035724248	0.16387482	0.79776189	-0.14721152	0.21578054	0.78045913	0.19728966	0.24893532	0.84324918	-0.11442527	0.28613929	0.84564556	0.13117945	0.088077309	0.90320342	0.044870942	0.20127304	1.3258648	-0.15740071	0.18309008	1.3046914	0.20559523	0.11619644	1.3534968	0.020310994	0.25055424	1.0072008	-0.23720318	0.037074126	1.0247831	0.25235568	0.48153031	0.92840651	-0.17742729	0.095631729	0.79614748	0.30224744
261	1.04	0.06762704	0.034373261	-0.026877857	0.68864192	0.14963776	0.1522627	-0.051848163	0.074583919	-0.051646508	0.55553143	0.10553686	0.16741274	-0.050954291	0.090230332	0.036294359	0.56960914	0.13625598	0.081252215	-0.13043945	0.057328563	-0.0060329142	0.52823068	0.057538505	0.10264674	0.10042383	0.41500286	-0.076310981	0.4069424	0.46180846	0.16790345	0.085676014	0.42052624	0.043572008	0.38928237	0.43126078	0.035486962	0.16883256	0.796666	-0.14671347	0.2229436	0.77912102	0.19750092	0.25442417	0.84198275	-0.11454131	0.29294967	0.84434174	0.13096439	0.094109242	0.90277252	0.045394086	0.20726404	1.324323	-0.15721831	0.1888804	1.3031936	0.20604499	0.12218498	1.3523422	0.020601313	0.25819728	1.0057031	-0.23645175	0.042704775	1.023441	0.25240697	0.48938373	0.92860294	-0.17607873	0.09984666	0.79468708	0.30292072
262	1.044	0.067655271	0.034351137	-0.02683855	0.69700363	0.15040743	0.15165466	-0.051362772	0.0753322	-0.051522119	0.56416499	0.1052944	0.16634304	-0.05013853	0.090923031	0.036451896	0.57822965	0.13646179	0.080388715	-0.1301429	0.058727863	-0.0057323372	0.53735887	0.05736159	0.10134945	0.10403494	0.4143881	-0.076138027	0.41418572	0.46116249	0.16773182	0.09001124	0.41987773	0.043755961	0.39587394	0.43052699	0.035300409	0.17387242	0.7955675	-0.14622353	0.23004781	0.77785375	0.19769936	0.25994878	0.84072682	-0.11466835	0.29978717	0.84305771	0.13071542	0.10017973	0.9024178	0.045868896	0.21327425	1.3228325	-0.15700658	0.19471401	1.3017453	0.20651253	0.12820205	1.3512106	0.020913281	0.26578779	1.0042461	-0.23569948	0.048425238	1.0221152	0.25247227	0.49715291	0.9287218	-0.17473993	0.1041924	0.7932462	0.303586
263	1.048	0.0676774	0.034326679	-0.026804284	0.70494238	0.15070839	0.15089409	-0.050809218	0.076140682	-0.051451143	0.5723528	0.10481963	0.16526631	-0.049298635	0.091678787	0.036546042	0.5863586	0.1364123	0.079497626	-0.1297979	0.060218987	-0.0054320376	0.54584456	0.057042698	0.1000956	0.10774537	0.41379955	-0.075941642	0.42131803	0.46048147	0.16755401	0.094315124	0.41926933	0.043953696	0.40255031	0.42985843	0.03515781	0.17898942	0.79446754	-0.14572502	0.2371754	0.77669998	0.19795302	0.26553608	0.83947785	-0.11479184	0.30666087	0.84179946	0.13044409	0.10630232	0.90211147	0.046339306	0.2193034	1.3214031	-0.15675587	0.20058968	1.300353	0.20699385	0.13424189	1.3501028	0.021252115	0.27332998	1.0028329	-0.23491554	0.054247189	1.0208222	0.25255118	0.5048357	0.92876605	-0.17341044	0.10865862	0.79184054	0.30424627
